<?xml version="1.0" encoding="utf-8"?>
<!-- Generator: Adobe Illustrator 22.0.0, SVG Export Plug-In . SVG Version: 6.00 Build 0)  -->
<svg version="1.1" id="Layer_1" xmlns="http://www.w3.org/2000/svg" xmlns:xlink="http://www.w3.org/1999/xlink" x="0px" y="0px"
	 viewBox="0 0 100 100" style="enable-background:new 0 0 100 100;" xml:space="preserve">
<path d="M48.5,92.9c-6.8,0-12.5-5-12.5-11v-6.2c0-1.5,1.3-2.8,2.8-2.8s2.8,1.3,2.8,2.8v6.2c0,2.5,2.9,5.4,6.8,5.4h33.8
	c3.6,0,5.2-3.2,5.2-6.2V49.5c0-4.8-1.5-7.4-4.7-7.8l-0.2-0.1h-6.8c-1.5,0-2.8-1.3-2.8-2.8s1.3-2.8,2.8-2.8h7.9
	c5.5,0,9.4,5.6,9.4,13.5V80c0,7.5-4.5,12.9-10.6,12.9H48.5z"/>
<path d="M16.3,60.8c-4.1,0-9.3-3.9-9.3-8.2V14.1c0-4,5-7.1,9.3-7.1h38.5c5.2,0,6,4.4,6,7.1v38.5c0,4.1-1.9,8.2-6,8.2H16.3z
	 M19.5,12.7c-3.7,0-6.8,3.1-6.8,6.8v28.9c0,3.7,3.1,6.8,6.8,6.8h28.9c3.7,0,6.8-3.1,6.8-6.8V19.5c0-3.7-3.1-6.8-6.8-6.8H19.5z"/>
<g id="Layer_2">
	<rect x="10.7" y="11" width="46.2" height="46.2"/>
</g>
</svg>
