<?xml version="1.0" encoding="iso-8859-1"?>
<!-- Generator: Adobe Illustrator 22.0.0, SVG Export Plug-In . SVG Version: 6.00 Build 0)  -->
<svg version="1.1" id="Layer_1" xmlns="http://www.w3.org/2000/svg" xmlns:xlink="http://www.w3.org/1999/xlink" x="0px" y="0px"
	 viewBox="0 0 22 22" style="enable-background:new 0 0 22 22;" xml:space="preserve">
<path style="fill:#010101;" d="M8.511,15.666c-0.6,0-1.067,0.489-1.067,1.067v1.378c0,1.578,1.467,2.889,3.222,2.889h7.489
	C19.8,21.022,21,19.622,21,17.689v-6.778c0-2.022-1.044-3.444-2.533-3.444h-1.756c-0.6,0-1.067,0.489-1.067,1.067
	c0,0.6,0.489,1.067,1.067,1.067h1.422c0.111,0.044,0.733-0.067,0.733,1.311v7.022c0,0.044,0,0.933-0.711,0.933h-7.511
	c-0.622,0-1.067-0.444-1.067-0.756v-1.378C9.578,16.133,9.089,15.666,8.511,15.666z"/>
<g>
	<path style="fill:none;" d="M10.644,3.178H4.222c-0.6,0-1.067,0.489-1.067,1.067v6.422c0,0.6,0.489,1.067,1.067,1.067h6.422
		c0.6,0,1.067-0.489,1.067-1.067V4.244C11.711,3.644,11.244,3.178,10.644,3.178z"/>
	<path style="fill:#010101;" d="M12.067,1.022H3.511C2.333,1.022,1,1.866,1,3.044V11.6c0,1.2,1.333,2.267,2.511,2.267h8.556
		c1.178,0,1.778-1.089,1.778-2.267V3.044C13.844,1.866,13.244,1.022,12.067,1.022z M11.711,10.666c0,0.6-0.489,1.067-1.067,1.067
		H4.222c-0.6,0-1.067-0.489-1.067-1.067V4.244c0-0.6,0.489-1.067,1.067-1.067h6.422c0.6,0,1.067,0.489,1.067,1.067V10.666z"/>
</g>
</svg>
