<?xml version="1.0" encoding="utf-8"?>
<!-- Generator: Adobe Illustrator 22.0.0, SVG Export Plug-In . SVG Version: 6.00 Build 0)  -->
<svg version="1.1" id="Layer_1" xmlns="http://www.w3.org/2000/svg" xmlns:xlink="http://www.w3.org/1999/xlink" x="0px" y="0px"
	 viewBox="0 0 22 22" style="enable-background:new 0 0 22 22;" xml:space="preserve">
<g>
	<path d="M21,10.6c0-0.1,0-0.2-0.1-0.3c-0.7-0.9-4.8-5.6-9.9-5.6c-5.5,0-9.8,5.5-10,5.7c-0.2,0.2-0.2,0.6,0,0.9
		C1.1,11.5,5.5,17,11,17c5.1,0,9.2-4.7,9.9-5.6c0.1-0.1,0.1-0.2,0.1-0.3V10.6z M11,15.8c-3.9,0-7.3-3.1-8.6-4.6
		c-0.2-0.2-0.2-0.4,0-0.6C3.7,9.1,7.1,6,11,6c3.9,0,7.3,3.1,8.6,4.6c0.2,0.2,0.2,0.4,0,0.6C18.3,12.6,14.9,15.8,11,15.8z"/>
	<path d="M7,9.5c0,2.5,1.8,4.6,4,4.6c2.2,0,4-2.1,4-4.6s-1.8-4.6-4-4.6S7,7,7,9.5z M13.9,9.5c0,1.8-1.3,3.3-2.9,3.3
		s-2.9-1.5-2.9-3.3c0-1.8,1.3-3.3,2.9-3.3C12.6,6.2,13.9,7.6,13.9,9.5z"/>
	<path d="M11.8,7C10,7.8,10.3,7.8,9.6,9.2C9.4,9.5,8.9,9.5,8.7,9.4C8.5,9.3,8.5,9.1,8.7,8.7c0.9-1.6,2.7-3,3.1-1.9"/>
	<path d="M11.6,7.6"/>
</g>
</svg>
