<svg id="Group_24668" data-name="Group 24668" xmlns="http://www.w3.org/2000/svg" xmlns:xlink="http://www.w3.org/1999/xlink" width="10.511" height="8.19" viewBox="0 0 10.511 8.19">
  <defs>
    <clipPath id="clip-path">
      <rect id="Rectangle_22" data-name="Rectangle 22" width="10.511" height="8.19" fill="none"/>
    </clipPath>
  </defs>
  <g id="Group_9" data-name="Group 9" transform="translate(0 0)" clip-path="url(#clip-path)">
    <path id="Path_6" data-name="Path 6" d="M.062,4.407l0-.01a.8.8,0,0,1-.042-.142s0-.005,0-.008a.792.792,0,0,1,0-.3s0-.005,0-.008a.81.81,0,0,1,.042-.142l0-.01a.816.816,0,0,1,.07-.133l0-.008a.825.825,0,0,1,.1-.127L3.516.24A.819.819,0,0,1,4.674,1.4L2.8,3.276h6.9a.819.819,0,0,1,0,1.638H2.8L4.674,6.792A.819.819,0,1,1,3.516,7.951L.241,4.676a.821.821,0,0,1-.1-.127l0-.008a.816.816,0,0,1-.07-.133" transform="translate(0 0)"/>
  </g>
</svg>
