<?xml version="1.0" encoding="iso-8859-1"?>
<!-- Generator: Adobe Illustrator 22.0.0, SVG Export Plug-In . SVG Version: 6.00 Build 0)  -->
<svg version="1.1" id="Layer_1" xmlns="http://www.w3.org/2000/svg" xmlns:xlink="http://www.w3.org/1999/xlink" x="0px" y="0px"
	 viewBox="0 0 22 22" style="enable-background:new 0 0 22 22;" xml:space="preserve">
<path d="M2.173,12.022C0.974,10.841,0.31,9.27,0.304,7.601C0.298,5.936,0.945,4.359,2.127,3.161
	c1.203-1.197,2.789-1.855,4.466-1.855c1.622,0,3.158,0.616,4.345,1.738c1.187-1.122,2.723-1.738,4.345-1.738
	c1.678,0,3.263,0.658,4.465,1.854c1.255,1.182,1.948,2.757,1.948,4.431c0,1.674-0.693,3.25-1.952,4.435l-8.783,8.737L2.173,12.022z
	 M6.638,3.25c-1.153,0-2.248,0.458-3.083,1.288c-0.834,0.83-1.294,1.915-1.294,3.054c0,1.139,0.459,2.224,1.294,3.054l7.405,7.388
	l7.428-7.388c0.863-0.816,1.361-1.906,1.405-3.071c0-1.112-0.475-2.176-1.336-2.989c-0.882-0.877-1.977-1.335-3.13-1.335
	s-2.248,0.458-3.083,1.288l-1.262,1.255L9.721,4.538C8.875,3.695,7.809,3.25,6.638,3.25z"/>
<path d="M19.628,3.281c-1.209-1.203-2.777-1.805-4.345-1.805s-3.135,0.602-4.345,1.805C9.729,2.078,8.161,1.476,6.594,1.476
	S3.458,2.078,2.249,3.281c-2.374,2.406-2.374,6.238,0.045,8.622l8.667,8.622l8.667-8.622C22.159,9.519,22.159,5.664,19.628,3.281z
	 M18.508,10.766L18.508,10.766l-7.548,7.508l-7.525-7.508c-1.792-1.782-1.792-4.567,0-6.349C4.287,3.57,5.429,3.08,6.638,3.08
	s2.329,0.468,3.203,1.337l1.142,1.136l1.142-1.136c0.851-0.847,1.993-1.337,3.203-1.337c1.187,0,2.329,0.468,3.203,1.337
	l0.022,0.022l0.022,0.022c0.896,0.847,1.389,1.96,1.389,3.119C19.919,8.761,19.427,9.897,18.508,10.766L18.508,10.766z"/>
</svg>
